<svg width="406" height="306" viewBox="0 0 406 306" fill="none" xmlns="http://www.w3.org/2000/svg">
<path opacity="0.3" d="M114.908 64.4311C80.8956 75.4946 50.9633 104.635 49.3088 144.789C48.3852 167.119 53.247 224.405 124.013 239.285C237.601 263.178 339.761 255.099 361.208 197.589C380.31 146.372 350.043 78.2453 293.315 64.1875C253.334 54.2913 181.35 42.8116 114.908 64.4311Z" fill="#E6E6E6"/>
<path d="M303.049 48.7899H103.916V226.131H303.049V48.7899Z" fill="#E6E6E6"/>
<path d="M119.679 69.1914C122.308 69.1914 124.439 67.0602 124.439 64.4311C124.439 61.802 122.308 59.6707 119.679 59.6707C117.049 59.6707 114.918 61.802 114.918 64.4311C114.918 67.0602 117.049 69.1914 119.679 69.1914Z" fill="#FFD200"/>
<path d="M133.087 69.1914C135.716 69.1914 137.847 67.0602 137.847 64.4311C137.847 61.802 135.716 59.6707 133.087 59.6707C130.458 59.6707 128.326 61.802 128.326 64.4311C128.326 67.0602 130.458 69.1914 133.087 69.1914Z" fill="#68E1FD"/>
<path d="M145.937 69.1914C148.566 69.1914 150.697 67.0602 150.697 64.4311C150.697 61.802 148.566 59.6707 145.937 59.6707C143.308 59.6707 141.176 61.802 141.176 64.4311C141.176 67.0602 143.308 69.1914 145.937 69.1914Z" fill="#24285B"/>
<path d="M240.788 58.9298H167.028V69.9324H240.788V58.9298Z" fill="white"/>
<path opacity="0.09" d="M202.087 97.3475C202.087 97.3475 223.087 117.648 212.348 136.658C212.003 137.267 211.648 137.846 211.272 138.425C206.197 146.22 198.27 151.681 189.957 155.477C186.686 156.967 183.314 158.228 179.868 159.252C177.128 160.075 173.646 160.369 171.748 162.744C171.056 163.681 170.489 164.705 170.063 165.789C168.743 168.543 167.869 171.489 167.475 174.518C167.231 177.37 168.064 180.172 168.206 183.034C168.632 191.773 165.394 200.411 160.472 207.658C157.422 212.041 153.91 216.084 149.997 219.716C148.068 221.543 146.089 223.39 144.008 225.055C142.496 226.253 141.704 226.141 139.857 226.07C134.569 226.07 129.281 226.07 123.992 226.07L142.567 177.228L158.594 145.763C158.594 145.763 187.257 144.657 196.21 133.015C205.162 121.373 202.087 97.3475 202.087 97.3475Z" fill="black"/>
<path d="M329.571 83.0868H238.271V208.48H329.571V83.0868Z" fill="#24285B"/>
<path d="M113.538 191.479C113.538 191.479 127.941 153.508 148.931 156.745C169.921 159.983 171.576 223.431 119.496 222.264L113.538 191.479Z" fill="#F4A28C"/>
<path opacity="0.1" d="M162.319 186.972C160.989 198.015 155.539 209.434 144.577 216.194C139.417 219.298 133.643 221.241 127.657 221.888C124.939 222.208 122.201 222.334 119.466 222.264L113.528 191.479C113.528 191.479 127.941 153.508 148.931 156.745C155.021 157.689 159.517 163.749 161.507 171.828C162.672 176.788 162.947 181.916 162.319 186.972Z" fill="black"/>
<path opacity="0.1" d="M162.319 186.972C157.102 193.062 147.814 196.594 146.221 206.003C145.652 209.363 145.084 212.905 144.577 216.153C139.417 219.257 133.643 221.2 127.656 221.847L130.702 202.055L160.37 170.752C160.76 171.088 161.129 171.448 161.476 171.828C162.651 176.787 162.936 181.914 162.319 186.972Z" fill="black"/>
<path d="M165.935 146.396L153.895 142.493L145.836 167.355L157.876 171.258L165.935 146.396Z" fill="#0ACF83"/>
<path d="M181.421 78.905C174.329 76.6062 166.713 76.4622 159.539 78.4913C152.365 80.5204 145.953 84.6314 141.115 90.3045C136.277 95.9776 133.23 102.958 132.359 110.363C131.488 117.768 132.833 125.264 136.223 131.905C139.613 138.546 144.896 144.032 151.404 147.67C157.912 151.308 165.352 152.935 172.785 152.344C180.217 151.753 187.307 148.972 193.159 144.352C199.011 139.731 203.361 133.479 205.659 126.387C208.741 116.876 207.919 106.531 203.374 97.6261C198.828 88.7217 190.932 81.9875 181.421 78.905ZM161.05 141.733C155.714 140.007 151.01 136.737 147.532 132.338C144.055 127.938 141.959 122.607 141.512 117.016C141.064 111.426 142.283 105.829 145.016 100.932C147.749 96.0345 151.873 92.0576 156.866 89.5037C161.858 86.9498 167.496 85.9336 173.067 86.5836C178.637 87.2335 183.89 89.5204 188.16 93.1551C192.431 96.7898 195.528 101.609 197.06 107.004C198.593 112.399 198.491 118.127 196.768 123.464C194.45 130.619 189.385 136.56 182.686 139.981C175.988 143.401 168.205 144.021 161.05 141.703V141.733Z" fill="#24285B"/>
<path d="M159.627 163.921L148.697 160.378C146.18 159.563 143.478 160.942 142.662 163.459L131.893 196.683C131.077 199.2 132.456 201.902 134.973 202.717L145.903 206.26C148.42 207.076 151.122 205.697 151.937 203.18L162.707 169.956C163.523 167.439 162.144 164.737 159.627 163.921Z" fill="#24285B"/>
<path d="M132.234 179.441C132.234 179.441 151.001 165.363 157.772 167.91C163.354 170.022 161.588 181.522 147.53 189.144C144.677 190.672 142.186 192.795 140.225 195.369C138.263 197.943 136.878 200.909 136.162 204.065C134.985 209.363 132.234 215.453 126.012 219.422C113.03 227.775 105.915 217.656 109.133 204.197C112.35 190.738 113.751 186.769 132.234 179.441Z" fill="#F4A28C"/>
<path d="M123.769 257.21L132.701 218.214L103.205 204.065L77.9622 257.21H123.769Z" fill="#0ACF83"/>
<path opacity="0.1" d="M123.769 257.21L132.701 218.214L118.623 211.454L105.479 257.21H123.769Z" fill="black"/>
<path opacity="0.43" d="M289.955 111.02H270.203V116.683H289.955V111.02Z" fill="#C1C1C1"/>
<path opacity="0.36" d="M257.039 122.601C261.198 122.601 264.57 119.229 264.57 115.069C264.57 110.91 261.198 107.538 257.039 107.538C252.879 107.538 249.507 110.91 249.507 115.069C249.507 119.229 252.879 122.601 257.039 122.601Z" fill="#C1C1C1"/>
<path d="M296.167 180.232H254.948V192.27H296.167V180.232Z" fill="#0ACF83"/>
<path d="M295.507 131.695H254.948V136.699H295.507V131.695Z" fill="#C1C1C1"/>
<path opacity="0.44" d="M318.335 144.789H254.948V149.793H318.335V144.789Z" fill="#C1C1C1"/>
<path opacity="0.44" d="M318.335 155.751H254.948V160.755H318.335V155.751Z" fill="#C1C1C1"/>
<path opacity="0.44" d="M304.703 167.139H254.948V172.143H304.703V167.139Z" fill="#C1C1C1"/>
<path d="M247.122 96.495C249.011 96.495 250.543 94.9635 250.543 93.0744C250.543 91.1853 249.011 89.6538 247.122 89.6538C245.233 89.6538 243.701 91.1853 243.701 93.0744C243.701 94.9635 245.233 96.495 247.122 96.495Z" fill="#FFD200"/>
<path d="M256.765 96.495C258.654 96.495 260.185 94.9635 260.185 93.0744C260.185 91.1853 258.654 89.6538 256.765 89.6538C254.875 89.6538 253.344 91.1853 253.344 93.0744C253.344 94.9635 254.875 96.495 256.765 96.495Z" fill="#68E1FD"/>
<path d="M266.001 96.495C267.89 96.495 269.422 94.9635 269.422 93.0744C269.422 91.1853 267.89 89.6538 266.001 89.6538C264.112 89.6538 262.581 91.1853 262.581 93.0744C262.581 94.9635 264.112 96.495 266.001 96.495Z" fill="white"/>
<path d="M170.104 138.526C165.394 138.534 160.788 137.145 156.868 134.534C152.948 131.923 149.891 128.208 148.084 123.859C146.277 119.51 145.8 114.722 146.715 110.102C147.629 105.482 149.894 101.237 153.222 97.9048C156.55 94.5724 160.792 92.3023 165.411 91.3817C170.03 90.4612 174.818 90.9316 179.169 92.7335C183.521 94.5353 187.24 97.5876 189.856 101.504C192.472 105.42 193.867 110.025 193.865 114.735C193.857 121.037 191.352 127.079 186.898 131.538C182.445 135.997 176.406 138.51 170.104 138.526ZM170.104 97.3476C166.665 97.3476 163.303 98.3673 160.444 100.278C157.585 102.188 155.356 104.904 154.04 108.081C152.724 111.258 152.38 114.754 153.051 118.127C153.722 121.499 155.378 124.597 157.809 127.029C160.241 129.461 163.339 131.116 166.712 131.787C170.085 132.458 173.58 132.114 176.758 130.798C179.935 129.482 182.65 127.253 184.561 124.394C186.471 121.535 187.491 118.173 187.491 114.735C187.488 110.124 185.655 105.703 182.395 102.443C179.135 99.1829 174.714 97.3502 170.104 97.3476Z" fill="#C9C9C9"/>
<path d="M170.104 138.526C164.287 138.529 158.671 136.398 154.321 132.538L158.573 127.747C161.751 130.569 165.854 132.126 170.104 132.121V138.526Z" fill="#24285B"/>
<path d="M193.865 114.735H187.46C187.455 110.125 185.621 105.706 182.362 102.446C179.102 99.1865 174.683 97.3529 170.073 97.3475V90.9327C176.383 90.9408 182.431 93.4514 186.891 97.9136C191.352 102.376 193.86 108.425 193.865 114.735Z" fill="#0ACF83"/>
<path d="M170.104 138.526V132.121C174.713 132.113 179.13 130.279 182.389 127.02C185.648 123.761 187.483 119.343 187.491 114.735H193.865C193.857 121.037 191.352 127.079 186.898 131.538C182.445 135.997 176.406 138.51 170.104 138.526Z" fill="#FFD200"/>
<path opacity="0.08" d="M186.445 189.652H176.64V205.557H186.445V189.652Z" fill="black"/>
<path opacity="0.08" d="M202.98 172.569H193.175V205.567H202.98V172.569Z" fill="black"/>
<path opacity="0.08" d="M220.417 161.079H210.613V205.567H220.417V161.079Z" fill="black"/>
<path d="M279.125 54.8596C281.044 54.8313 282.95 55.176 284.738 55.8746C286.259 56.4542 287.665 57.2996 288.889 58.3715C289.377 58.7877 289.823 59.2343 290.27 59.6809C290.524 59.9643 290.661 60.333 290.655 60.7134C290.649 61.0938 290.5 61.4579 290.237 61.7332C289.975 62.0086 289.618 62.1748 289.239 62.1989C288.859 62.223 288.484 62.1031 288.189 61.8631C287.732 61.4571 287.326 61.0105 286.87 60.6147C284.916 58.9588 282.461 58.0092 279.902 57.919C277.342 57.8287 274.827 58.6032 272.761 60.1173C272.037 60.6565 271.358 61.2539 270.731 61.9037C270.461 62.238 270.079 62.4619 269.655 62.533C269.365 62.5744 269.07 62.5302 268.804 62.4058C268.539 62.2814 268.316 62.0822 268.163 61.8327C267.988 61.5735 267.903 61.2632 267.924 60.9508C267.944 60.6385 268.067 60.3417 268.275 60.1072C269.138 59.122 270.112 58.2399 271.178 57.4783C272.463 56.5727 273.89 55.8867 275.4 55.4483C276.608 55.0784 277.862 54.8802 279.125 54.8596Z" fill="#0ACF83"/>
<path d="M279.866 60.3407C281.066 60.3982 282.243 60.695 283.327 61.2136C284.539 61.808 285.611 62.652 286.474 63.6902C286.727 63.9834 286.867 64.3581 286.867 64.7458C286.867 65.1334 286.727 65.5081 286.474 65.8013C286.245 66.0832 285.925 66.2761 285.569 66.3466C285.213 66.417 284.843 66.3606 284.525 66.1871C284.132 65.9329 283.771 65.6331 283.449 65.2939C282.796 64.6253 281.978 64.1409 281.078 63.8896C280.178 63.6383 279.228 63.629 278.323 63.8627C277.246 64.147 276.276 64.7397 275.532 65.5679C275.23 65.9022 274.89 66.1988 274.517 66.451C274.201 66.6291 273.833 66.694 273.475 66.635C273.117 66.5759 272.79 66.3964 272.548 66.1262C272.298 65.8537 272.148 65.5047 272.122 65.136C272.096 64.7673 272.196 64.4007 272.406 64.0962C272.744 63.6861 273.111 63.2995 273.502 62.9391C274.001 62.4501 274.552 62.0178 275.146 61.65C276.127 61.0571 277.218 60.6703 278.354 60.5132C278.851 60.3914 279.358 60.3813 279.866 60.3407Z" fill="#0ACF83"/>
<path d="M282.028 69.2422C282.038 69.764 281.893 70.2771 281.611 70.7165C281.33 71.1559 280.924 71.5019 280.446 71.7108C279.968 71.9197 279.438 71.9821 278.924 71.8901C278.411 71.7982 277.936 71.5559 277.56 71.194C277.184 70.8322 276.923 70.3669 276.812 69.8571C276.7 69.3473 276.742 68.8158 276.932 68.3298C277.123 67.8439 277.453 67.4253 277.881 67.127C278.309 66.8287 278.816 66.6641 279.338 66.654C279.686 66.6445 280.031 66.7043 280.355 66.8297C280.679 66.9552 280.975 67.1438 281.225 67.3847C281.476 67.6256 281.675 67.9139 281.813 68.2328C281.951 68.5517 282.024 68.8948 282.028 69.2422Z" fill="#0ACF83"/>
<g opacity="0.08">
<path d="M170.784 60.4828L171.799 64.4007C172.022 65.2634 172.235 66.0653 172.377 66.857C172.56 66.0754 172.814 65.2533 173.068 64.421L174.326 60.4828H175.595L176.793 64.3398C177.077 65.2634 177.3 66.0754 177.473 66.857C177.62 66.0138 177.816 65.1801 178.061 64.3601L179.158 60.4828H180.548L178.061 68.1968H176.783L175.595 64.5123C175.331 63.6597 175.108 62.8883 174.915 61.985C174.726 62.8459 174.493 63.6963 174.215 64.5326L172.966 68.1968H171.697L169.373 60.4828H170.784Z" fill="black"/>
<path d="M182.7 60.4828L183.715 64.4007C183.938 65.2634 184.141 66.0653 184.283 66.857H184.334C184.507 66.0754 184.76 65.2533 185.014 64.421L186.273 60.4828H187.45L188.648 64.3398C188.932 65.2634 189.155 66.0754 189.338 66.857C189.49 66.0148 189.687 65.1814 189.927 64.3601L191.033 60.4828H192.414L189.927 68.1968H188.658L187.481 64.5123C187.206 63.6825 186.976 62.8389 186.79 61.985C186.607 62.847 186.373 63.6977 186.09 64.5326L184.852 68.1968H183.573L181.249 60.4828H182.7Z" fill="black"/>
<path d="M194.626 60.4828L195.641 64.4007C195.864 65.2634 196.078 66.0653 196.22 66.857C196.402 66.0754 196.656 65.2533 196.91 64.421L198.169 60.4828H199.346L200.544 64.3398C200.828 65.2634 201.051 66.0754 201.224 66.857H201.274C201.422 66.0138 201.618 65.1801 201.863 64.3601L203 60.4828H204.39L201.904 68.1968H200.625L199.447 64.5123C199.184 63.6597 198.96 62.8883 198.767 61.985C198.579 62.8459 198.345 63.6963 198.067 64.5326L196.819 68.1968H195.55L193.215 60.4828H194.626Z" fill="black"/>
<path d="M204.837 67.3645C204.823 67.2316 204.838 67.0973 204.879 66.9703C204.92 66.8433 204.988 66.7264 205.078 66.6272C205.167 66.528 205.276 66.4487 205.398 66.3944C205.52 66.3401 205.653 66.3121 205.786 66.3121C205.92 66.3121 206.052 66.3401 206.174 66.3944C206.296 66.4487 206.405 66.528 206.495 66.6272C206.584 66.7264 206.652 66.8433 206.693 66.9703C206.735 67.0973 206.749 67.2316 206.735 67.3645C206.749 67.4973 206.735 67.6316 206.693 67.7586C206.652 67.8856 206.584 68.0025 206.495 68.1017C206.405 68.2009 206.296 68.2802 206.174 68.3345C206.052 68.3888 205.92 68.4168 205.786 68.4168C205.653 68.4168 205.52 68.3888 205.398 68.3345C205.276 68.2802 205.167 68.2009 205.078 68.1017C204.988 68.0025 204.92 67.8856 204.879 67.7586C204.838 67.6316 204.823 67.4973 204.837 67.3645Z" fill="black"/>
</g>
</svg>
